<svg xmlns="http://www.w3.org/2000/svg" xmlns:xlink="http://www.w3.org/1999/xlink" width="6912" zoomAndPan="magnify" viewBox="0 0 5184 2592.000001" height="3456" preserveAspectRatio="xMidYMid meet" version="1.0"><defs><g/></defs><g fill="#ffffff" fill-opacity="1"><g transform="translate(86.921287, 1467.34471)"><g><path d="M 398.28125 -366.6875 L 259.375 -366.6875 L 259.375 0 L 142.203125 0 L 142.203125 -366.6875 L 4.609375 -366.6875 L 4.609375 -461.484375 L 398.28125 -461.484375 Z M 398.28125 -366.6875 "/></g></g></g><g fill="#ffffff" fill-opacity="1"><g transform="translate(640.557125, 1467.34471)"><g><path d="M 460.8125 -460.8125 L 460.8125 -193.546875 C 460.8125 -132.535156 441.941406 -84.144531 404.203125 -48.375 C 366.460938 -12.613281 315.332031 5.265625 250.8125 5.265625 C 185.863281 5.265625 134.1875 -12.613281 95.78125 -48.375 C 57.382812 -84.144531 38.1875 -132.535156 38.1875 -193.546875 L 38.1875 -460.8125 L 155.359375 -460.8125 L 155.359375 -193.546875 C 155.359375 -162.828125 164.242188 -138.359375 182.015625 -120.140625 C 199.796875 -101.929688 222.945312 -92.828125 251.46875 -92.828125 C 279.5625 -92.828125 302.054688 -101.820312 318.953125 -119.8125 C 335.847656 -137.800781 344.296875 -162.378906 344.296875 -193.546875 L 344.296875 -460.8125 Z M 460.8125 -460.8125 "/></g></g></g><g fill="#ffffff" fill-opacity="1"><g transform="translate(1290.963855, 1467.34471)"><g><path d="M 46.078125 -460.8125 L 263.984375 -460.8125 C 315.773438 -460.8125 356.921875 -450.390625 387.421875 -429.546875 C 417.921875 -408.703125 433.171875 -380.722656 433.171875 -345.609375 C 433.171875 -321.472656 426.144531 -300.296875 412.09375 -282.078125 C 398.050781 -263.867188 378.742188 -251.253906 354.171875 -244.234375 C 383.140625 -238.523438 406.179688 -225.140625 423.296875 -204.078125 C 440.410156 -183.015625 448.96875 -157.5625 448.96875 -127.71875 C 448.96875 -88.65625 433.054688 -57.601562 401.234375 -34.5625 C 369.421875 -11.519531 326.304688 0 271.890625 0 L 46.078125 0 Z M 162.609375 -371.28125 L 162.609375 -276.484375 L 257.40625 -276.484375 C 274.519531 -276.484375 288.125 -280.765625 298.21875 -289.328125 C 308.3125 -297.890625 313.359375 -309.628906 313.359375 -324.546875 C 313.359375 -339.023438 308.3125 -350.429688 298.21875 -358.765625 C 288.125 -367.109375 274.519531 -371.28125 257.40625 -371.28125 Z M 162.609375 -192.234375 L 162.609375 -90.1875 L 257.40625 -90.1875 C 279.34375 -90.1875 296.566406 -94.796875 309.078125 -104.015625 C 321.585938 -113.234375 327.84375 -125.960938 327.84375 -142.203125 C 327.84375 -157.554688 321.585938 -169.734375 309.078125 -178.734375 C 296.566406 -187.734375 279.34375 -192.234375 257.40625 -192.234375 Z M 162.609375 -192.234375 "/></g></g></g><g fill="#ffffff" fill-opacity="1"><g transform="translate(1913.063419, 1467.34471)"><g><path d="M 406.84375 -368.65625 L 163.265625 -368.65625 L 163.265625 -277.15625 L 383.140625 -277.15625 L 383.140625 -184.984375 L 163.265625 -184.984375 L 163.265625 -92.15625 L 414.078125 -92.15625 L 414.078125 0 L 46.078125 0 L 46.078125 -460.8125 L 406.84375 -460.8125 Z M 406.84375 -368.65625 "/></g></g></g><g fill="#ec275f" fill-opacity="1"><g transform="translate(2497.269731, 1467.34471)"><g><path d="M 163.265625 -98.09375 L 358.78125 -98.09375 L 358.78125 0 L 46.078125 0 L 46.078125 -460.8125 L 163.265625 -460.8125 Z M 163.265625 -98.09375 "/></g></g></g><g fill="#ec275f" fill-opacity="1"><g transform="translate(3017.331993, 1467.34471)"><g><path d="M 163.265625 0 L 46.078125 0 L 46.078125 -460.8125 L 163.265625 -460.8125 Z M 163.265625 0 "/></g></g></g><g fill="#ec275f" fill-opacity="1"><g transform="translate(3378.084474, 1467.34471)"><g><path d="M 352.203125 -234.359375 L 453.578125 -234.359375 L 453.578125 -54.640625 C 428.554688 -37.085938 398.378906 -22.710938 363.046875 -11.515625 C 327.722656 -0.328125 294.046875 5.265625 262.015625 5.265625 C 191.785156 5.265625 133.191406 -17.222656 86.234375 -62.203125 C 39.273438 -107.191406 15.796875 -163.257812 15.796875 -230.40625 C 15.796875 -297.113281 39.929688 -352.847656 88.203125 -397.609375 C 136.484375 -442.378906 197.050781 -464.765625 269.90625 -464.765625 C 304.132812 -464.765625 338.144531 -458.617188 371.9375 -446.328125 C 405.738281 -434.046875 434.488281 -417.367188 458.1875 -396.296875 L 392.359375 -316.640625 C 375.679688 -332.003906 356.367188 -344.1875 334.421875 -353.1875 C 312.472656 -362.1875 290.75 -366.6875 269.25 -366.6875 C 231.507812 -366.6875 199.800781 -353.628906 174.125 -327.515625 C 148.445312 -301.398438 135.609375 -269.03125 135.609375 -230.40625 C 135.609375 -191.34375 148.554688 -158.644531 174.453125 -132.3125 C 200.347656 -105.988281 232.382812 -92.828125 270.5625 -92.828125 C 295.144531 -92.828125 322.359375 -100.285156 352.203125 -115.203125 Z M 352.203125 -234.359375 "/></g></g></g><g fill="#ec275f" fill-opacity="1"><g transform="translate(4018.616659, 1467.34471)"><g><path d="M 471.359375 0 L 354.171875 0 L 354.171875 -179.0625 L 163.265625 -179.0625 L 163.265625 0 L 46.078125 0 L 46.078125 -460.8125 L 163.265625 -460.8125 L 163.265625 -271.21875 L 354.171875 -271.21875 L 354.171875 -460.8125 L 471.359375 -460.8125 Z M 471.359375 0 "/></g></g></g><g fill="#ec275f" fill-opacity="1"><g transform="translate(4687.455911, 1467.34471)"><g><path d="M 398.28125 -366.6875 L 259.375 -366.6875 L 259.375 0 L 142.203125 0 L 142.203125 -366.6875 L 4.609375 -366.6875 L 4.609375 -461.484375 L 398.28125 -461.484375 Z M 398.28125 -366.6875 "/></g></g></g></svg>